<svg width="20" height="20" viewBox="0 0 20 20" fill="none" xmlns="http://www.w3.org/2000/svg">
<path d="M10.0129 4.79773C8.98498 4.79773 7.9801 5.10256 7.12537 5.67367C6.27065 6.24477 5.60447 7.05651 5.21109 8.00623C4.8177 8.95595 4.71477 10.001 4.91532 11.0092C5.11586 12.0174 5.61088 12.9435 6.33776 13.6704C7.06464 14.3973 7.99075 14.8923 8.99897 15.0929C10.0072 15.2934 11.0522 15.1905 12.0019 14.7971C12.9517 14.4037 13.7634 13.7375 14.3345 12.8828C14.9056 12.0281 15.2104 11.0232 15.2104 9.99523C15.2104 8.61677 14.6629 7.29476 13.6881 6.32004C12.7134 5.34532 11.3914 4.79773 10.0129 4.79773ZM10.0129 14.3931C9.14313 14.3931 8.29284 14.1352 7.56961 13.6519C6.84639 13.1687 6.2827 12.4818 5.94983 11.6782C5.61697 10.8746 5.52988 9.99035 5.69957 9.13724C5.86926 8.28414 6.28812 7.50051 6.90317 6.88545C7.51823 6.2704 8.30186 5.85154 9.15496 5.68185C10.0081 5.51216 10.8923 5.59925 11.6959 5.93211C12.4996 6.26498 13.1864 6.82867 13.6697 7.55189C14.1529 8.27512 14.4108 9.12541 14.4108 9.99523C14.4108 11.1616 13.9475 12.2802 13.1227 13.105C12.298 13.9298 11.1793 14.3931 10.0129 14.3931ZM1.12922 12.3941C1.15606 12.4964 1.14125 12.6052 1.08804 12.6966C1.03484 12.788 0.947575 12.8546 0.845361 12.8818C0.810975 12.8879 0.775797 12.8879 0.741411 12.8818C0.651149 12.8849 0.5625 12.8574 0.489901 12.8036C0.417303 12.7499 0.365032 12.6732 0.341603 12.586C-0.0562639 11.1035 -0.107338 9.54924 0.192342 8.04381C0.492022 6.53837 1.1344 5.12218 2.06967 3.90505C3.00495 2.68792 4.20798 1.70256 5.58549 1.02535C6.963 0.348151 8.47798 -0.00268786 10.0129 3.94071e-05C12.5107 -0.00699563 14.9191 0.928134 16.7577 2.61878V1.97509C16.7577 1.86905 16.7998 1.76736 16.8748 1.69238C16.9498 1.6174 17.0515 1.57528 17.1575 1.57528C17.2635 1.57528 17.3652 1.6174 17.4402 1.69238C17.5152 1.76736 17.5573 1.86905 17.5573 1.97509V3.57432C17.5573 3.68035 17.5152 3.78205 17.4402 3.85702C17.3652 3.932 17.2635 3.97413 17.1575 3.97413H15.5583C15.4522 3.97413 15.3505 3.932 15.2756 3.85702C15.2006 3.78205 15.1585 3.68035 15.1585 3.57432C15.1585 3.46828 15.2006 3.36659 15.2756 3.29161C15.3505 3.21663 15.4522 3.17451 15.5583 3.17451H16.158C14.6836 1.84948 12.8204 1.03637 10.8463 0.856397C8.87217 0.676422 6.89272 1.13921 5.20301 2.17578C3.51329 3.21236 2.20379 4.76721 1.46967 6.6086C0.735556 8.44998 0.616141 10.4793 1.12922 12.3941ZM17.0815 17.0798C15.2616 18.8997 12.8098 19.9475 10.2366 20.0048C7.66349 20.0622 5.16741 19.1247 3.26819 17.3877V18.0354C3.26819 18.1414 3.22607 18.2431 3.15109 18.3181C3.07611 18.393 2.97442 18.4352 2.86839 18.4352C2.76235 18.4352 2.66066 18.393 2.58568 18.3181C2.5107 18.2431 2.46858 18.1414 2.46858 18.0354V16.4361C2.46858 16.3301 2.5107 16.2284 2.58568 16.1534C2.66066 16.0784 2.76235 16.0363 2.86839 16.0363H4.46762C4.57365 16.0363 4.67534 16.0784 4.75032 16.1534C4.8253 16.2284 4.86742 16.3301 4.86742 16.4361C4.86742 16.5422 4.8253 16.6439 4.75032 16.7188C4.67534 16.7938 4.57365 16.8359 4.46762 16.8359H3.86791C5.34115 18.1567 7.20109 18.967 9.1715 19.1465C11.1419 19.3261 13.1177 18.8654 14.8054 17.8327C16.4931 16.8001 17.8028 15.2506 18.5398 13.4144C19.2768 11.5782 19.402 9.55332 18.8967 7.64036C18.8795 7.58856 18.8732 7.5338 18.878 7.47944C18.8828 7.42509 18.8987 7.3723 18.9247 7.32432C18.9507 7.27634 18.9862 7.23419 19.0291 7.20046C19.072 7.16673 19.1213 7.14214 19.1741 7.1282C19.2268 7.11426 19.2819 7.11127 19.3358 7.1194C19.3898 7.12754 19.4415 7.14663 19.4878 7.17551C19.5341 7.20439 19.574 7.24244 19.6051 7.28732C19.6361 7.33219 19.6576 7.38295 19.6683 7.43646C20.1145 9.12739 20.1105 10.9056 19.6567 12.5945C19.2029 14.2834 18.3151 15.8242 17.0815 17.0638V17.0798ZM9.21333 8.7958C9.21333 9.00788 9.29758 9.21126 9.44753 9.36122C9.59749 9.51118 9.80088 9.59542 10.0129 9.59542C10.3964 9.60329 10.7642 9.74868 11.0493 10.0051C11.3345 10.2615 11.5181 10.6118 11.5665 10.9922C11.615 11.3726 11.5251 11.7578 11.3133 12.0775C11.1016 12.3972 10.7819 12.6302 10.4128 12.7339V13.1937C10.4128 13.2997 10.3706 13.4014 10.2957 13.4764C10.2207 13.5514 10.119 13.5935 10.0129 13.5935C9.90691 13.5935 9.80522 13.5514 9.73024 13.4764C9.65526 13.4014 9.61314 13.2997 9.61314 13.1937V12.7379C9.27071 12.6495 8.96725 12.4501 8.75023 12.1708C8.53321 11.8916 8.41487 11.5483 8.41372 11.1946C8.41372 11.0886 8.45584 10.9869 8.53082 10.9119C8.6058 10.837 8.70749 10.7948 8.81353 10.7948C8.91956 10.7948 9.02125 10.837 9.09623 10.9119C9.17121 10.9869 9.21333 11.0886 9.21333 11.1946C9.21333 11.3528 9.26023 11.5074 9.34809 11.6389C9.43596 11.7704 9.56084 11.8729 9.70695 11.9334C9.85306 11.9939 10.0138 12.0098 10.1689 11.9789C10.3241 11.948 10.4665 11.8719 10.5784 11.7601C10.6902 11.6482 10.7663 11.5058 10.7972 11.3506C10.8281 11.1955 10.8122 11.0348 10.7517 10.8887C10.6912 10.7425 10.5887 10.6177 10.4572 10.5298C10.3257 10.4419 10.1711 10.395 10.0129 10.395C9.62709 10.3904 9.25592 10.2464 8.96788 9.98963C8.67985 9.73284 8.49438 9.38056 8.44567 8.99776C8.39697 8.61496 8.48832 8.22746 8.70288 7.90672C8.91744 7.58599 9.24073 7.35364 9.61314 7.25255V6.79677C9.61314 6.69073 9.65526 6.58904 9.73024 6.51406C9.80522 6.43908 9.90691 6.39696 10.0129 6.39696C10.119 6.39696 10.2207 6.43908 10.2957 6.51406C10.3706 6.58904 10.4128 6.69073 10.4128 6.79677V7.25255C10.7552 7.34096 11.0586 7.54038 11.2757 7.81962C11.4927 8.09886 11.611 8.44215 11.6122 8.7958C11.6122 8.90184 11.5701 9.00353 11.4951 9.07851C11.4201 9.15349 11.3184 9.19561 11.2124 9.19561C11.1063 9.19561 11.0046 9.15349 10.9297 9.07851C10.8547 9.00353 10.8126 8.90184 10.8126 8.7958C10.8126 8.58373 10.7283 8.38035 10.5784 8.23039C10.4284 8.08043 10.225 7.99619 10.0129 7.99619C9.80088 7.99619 9.59749 8.08043 9.44753 8.23039C9.29758 8.38035 9.21333 8.58373 9.21333 8.7958Z" fill="white"/>
</svg>
